<svg id="Layer_5" data-name="Layer 5" xmlns="http://www.w3.org/2000/svg" xmlns:xlink="http://www.w3.org/1999/xlink" viewBox="0 0 832.61 453.92"><defs><linearGradient id="linear-gradient" x1="448.45" y1="410.98" x2="572.55" y2="396.16" gradientTransform="translate(354.78 -554.58) rotate(48.96)" gradientUnits="userSpaceOnUse"><stop offset="0.05" stop-color="#b17400"/><stop offset="0.19" stop-color="#ffd551"/><stop offset="0.31" stop-color="#fffd9b"/><stop offset="0.62" stop-color="#daa105"/><stop offset="0.94" stop-color="#b27b00"/></linearGradient><linearGradient id="linear-gradient-2" x1="486.01" y1="402.32" x2="505.68" y2="514.2" gradientTransform="matrix(0.66, 0.75, -0.75, 0.66, 529.58, -260.45)" xlink:href="#linear-gradient"/><linearGradient id="linear-gradient-3" x1="508.49" y1="411.79" x2="665.93" y2="392.99" xlink:href="#linear-gradient"/><linearGradient id="linear-gradient-4" x1="569.4" y1="406.77" x2="577.29" y2="530.36" gradientTransform="matrix(0.66, 0.75, -0.75, 0.66, 529.58, -260.45)" xlink:href="#linear-gradient"/></defs><title>logo_ln</title><polygon points="372.78 196.9 292.34 105.35 407.6 2.32 438.5 36.66 351.5 115.14 401.29 171.22 372.78 196.9" style="fill:url(#linear-gradient)"/><path d="M428.07,412.92l117.7-105.2,33.1,36.78-87,78.48,49.78,56.09L510.69,507ZM545.52,312.35,432.69,413.2,511,502.28,537,478.81l-49.79-56.08,87-78.47Z" transform="translate(-138.04 -307.72)" style="fill:url(#linear-gradient-2)"/><polygon points="362.52 116.49 391.78 150.45 422.64 122.4 397.82 225.94 426.18 258.52 543.33 153.01 513.14 120.2 448.55 178.44 452.89 160.52 473.57 76 443.94 43.3 362.52 116.49" style="fill:url(#linear-gradient-3)"/><path d="M564.08,568.57l-30-34.48,23.77-99.17-28.16,25.6-31.41-36.46,83.84-75.36,31.31,34.56-24,98.12,61.85-55.77,32.42,35.23L682.48,462Zm-26.42-35.36,26.71,30.68L679,460.62l-28-30.4-67.34,60.72,5.6-23.09,20.47-83.68-27.94-30.84-79,71L530,455.82l33.56-30.51Z" transform="translate(-138.04 -307.72)" style="fill:url(#linear-gradient-4)"/><path d="M217.24,688.34a2.75,2.75,0,0,1-1.67,2.41q-1.87,1.34-3.75,2.61a7.52,7.52,0,0,1-4.08,1.54H140.59a2.22,2.22,0,0,1-2.55-2.48V591.56q0-1.54,3.18-3.78a10.19,10.19,0,0,1,5.59-2.24c1.56,0,2.34.85,2.34,2.54v98h65.21C216.28,686.07,217.24,686.83,217.24,688.34Z" transform="translate(-138.04 -307.72)" style="fill:#fff"/><path d="M296.37,688.34a2.74,2.74,0,0,1-1.68,2.41c-1.25.89-2.49,1.76-3.74,2.61a7.52,7.52,0,0,1-4.08,1.54H260.05A34.6,34.6,0,0,1,234.36,684a35.14,35.14,0,0,1-10.57-25.55V644.33a2.06,2.06,0,0,1-1.2-1.87,2.63,2.63,0,0,1,1.2-2.07V625a32.86,32.86,0,0,1,6.76-20.8q5.41-7,17-13.65a35.35,35.35,0,0,1,17.93-4.81h28c1.92,0,2.88.76,2.88,2.27a2.75,2.75,0,0,1-1.68,2.41c-1.25.89-2.49,1.76-3.74,2.61a7.52,7.52,0,0,1-4.08,1.54H260.05a30.83,30.83,0,0,0-12.51,2.61q-12.64,9.23-12.64,25V635.9h58.59q2.88,0,2.88,2.28a2.76,2.76,0,0,1-1.68,2.41c-1.25.89-2.49,1.76-3.74,2.61a7.58,7.58,0,0,1-4.08,1.53h-52v10.91a30.32,30.32,0,0,0,30.63,30.43h28C295.41,686.07,296.37,686.83,296.37,688.34Z" transform="translate(-138.04 -307.72)" style="fill:#fff"/><path d="M318.17,689.08q0,1.54-3.18,3.78a10.17,10.17,0,0,1-5.58,2.24c-1.56,0-2.34-.85-2.34-2.54v-101q0-1.54,3.17-3.78a10.19,10.19,0,0,1,5.59-2.24c1.56,0,2.34.85,2.34,2.54Z" transform="translate(-138.04 -307.72)" style="fill:#fff"/><path d="M409.27,588a2.76,2.76,0,0,1-1.67,2.41q-1.87,1.33-3.75,2.61a7.47,7.47,0,0,1-4.08,1.54H374.62v94.51q0,1.54-3.17,3.78a10.19,10.19,0,0,1-5.59,2.24c-1.56,0-2.34-.85-2.34-2.54v-98H331.75q-2.88,0-2.88-2.28a2.74,2.74,0,0,1,1.67-2.4c1.25-.9,2.5-1.76,3.75-2.61a7.52,7.52,0,0,1,4.08-1.54h68C408.31,585.74,409.27,586.5,409.27,588Z" transform="translate(-138.04 -307.72)" style="fill:#fff"/><path d="M493.75,688.34a2.75,2.75,0,0,1-1.67,2.41q-1.87,1.34-3.75,2.61a7.49,7.49,0,0,1-4.08,1.54H457.43A34.62,34.62,0,0,1,431.74,684a35.13,35.13,0,0,1-10.56-25.55V644.33a2,2,0,0,1-1.21-1.87,2.62,2.62,0,0,1,1.21-2.07V625a32.91,32.91,0,0,1,6.75-20.8q5.42-7,17.06-13.65a35.31,35.31,0,0,1,17.92-4.81h28c1.92,0,2.88.76,2.88,2.27a2.76,2.76,0,0,1-1.67,2.41q-1.87,1.33-3.75,2.61a7.49,7.49,0,0,1-4.08,1.54H457.43a30.83,30.83,0,0,0-12.51,2.61q-12.65,9.23-12.64,25V635.9h58.59q2.88,0,2.88,2.28a2.77,2.77,0,0,1-1.67,2.41q-1.87,1.33-3.75,2.61a7.55,7.55,0,0,1-4.08,1.53h-52v10.91a30.32,30.32,0,0,0,30.63,30.43h28C492.79,686.07,493.75,686.83,493.75,688.34Z" transform="translate(-138.04 -307.72)" style="fill:#fff"/><path d="M632.61,689.08c0,1.2-1.15,2.5-3.45,3.88s-4.09,2.07-5.38,2.07c-1.52,0-2.28-.82-2.28-2.47V641.72a45.32,45.32,0,0,0-13.84-33.41,45.82,45.82,0,0,0-33.51-13.74,14.41,14.41,0,0,0-4,.6,13.7,13.7,0,0,0-4.41,10.3v83.61c0,1.2-1.15,2.5-3.45,3.88s-4.09,2.07-5.38,2.07c-1.52,0-2.27-.82-2.27-2.47V608.28A17.55,17.55,0,0,1,559.16,596q3.21-3.54,10.91-7.76a19.58,19.58,0,0,1,9.56-2.54q21.81,0,37.39,15.65a51.3,51.3,0,0,1,15.59,37.52Z" transform="translate(-138.04 -307.72)" style="fill:#fff"/><path d="M717.08,688.34a2.73,2.73,0,0,1-1.67,2.41q-1.87,1.34-3.74,2.61a7.52,7.52,0,0,1-4.08,1.54H680.76A34.59,34.59,0,0,1,655.08,684a35.1,35.1,0,0,1-10.57-25.55V644.33a2.06,2.06,0,0,1-1.2-1.87,2.63,2.63,0,0,1,1.2-2.07V625a32.86,32.86,0,0,1,6.76-20.8q5.41-7,17.05-13.65a35.35,35.35,0,0,1,17.93-4.81h28c1.92,0,2.87.76,2.87,2.27a2.74,2.74,0,0,1-1.67,2.41q-1.87,1.33-3.74,2.61a7.52,7.52,0,0,1-4.08,1.54H680.76a30.75,30.75,0,0,0-12.5,2.61q-12.64,9.23-12.64,25V635.9h58.59c1.92,0,2.87.76,2.87,2.28a2.75,2.75,0,0,1-1.67,2.41q-1.87,1.33-3.74,2.61a7.58,7.58,0,0,1-4.08,1.53h-52v10.91a30.32,30.32,0,0,0,30.63,30.43h28C716.13,686.07,717.08,686.83,717.08,688.34Z" transform="translate(-138.04 -307.72)" style="fill:#fff"/><path d="M806.18,587.14a5.26,5.26,0,0,1-.34,1.61L772.13,689.82q-.46,1.39-3.27,3.21a9.58,9.58,0,0,1-5,1.8,2.27,2.27,0,0,1-2.41-1.6L727.85,592.36a1.88,1.88,0,0,1-.06-.53q0-1.87,2.87-4a9.36,9.36,0,0,1,5.35-2.07,2.38,2.38,0,0,1,2.55,1.6l28.62,86,27.56-82.61c.31-1,1.59-2.11,3.85-3.41a12.06,12.06,0,0,1,5.65-1.94C805.53,585.47,806.18,586,806.18,587.14Z" transform="translate(-138.04 -307.72)" style="fill:#fff"/><path d="M890.66,688.34a2.74,2.74,0,0,1-1.68,2.41q-1.86,1.34-3.74,2.61a7.52,7.52,0,0,1-4.08,1.54H854.34A34.6,34.6,0,0,1,828.65,684a35.14,35.14,0,0,1-10.57-25.55V644.33a2.06,2.06,0,0,1-1.2-1.87,2.63,2.63,0,0,1,1.2-2.07V625a32.86,32.86,0,0,1,6.76-20.8q5.42-7,17.06-13.65a35.29,35.29,0,0,1,17.92-4.81h28c1.92,0,2.88.76,2.88,2.27a2.75,2.75,0,0,1-1.68,2.41q-1.86,1.33-3.74,2.61a7.52,7.52,0,0,1-4.08,1.54H854.34a30.83,30.83,0,0,0-12.51,2.61q-12.65,9.23-12.64,25V635.9h58.59q2.88,0,2.88,2.28a2.76,2.76,0,0,1-1.68,2.41q-1.86,1.33-3.74,2.61a7.58,7.58,0,0,1-4.08,1.53h-52v10.91a30.32,30.32,0,0,0,30.63,30.43h28C889.7,686.07,890.66,686.83,890.66,688.34Z" transform="translate(-138.04 -307.72)" style="fill:#fff"/><path d="M969.65,655.64A32.87,32.87,0,0,1,963,676.3q-5.49,7.17-17.12,13.78a35.6,35.6,0,0,1-17.93,4.82q-15.51,0-25.82-10.9a2.4,2.4,0,0,1-.73-1.61q0-2.14,3.21-4.15a10.32,10.32,0,0,1,5.22-1.8c.35,0,1.67.82,3.94,2.47a40.93,40.93,0,0,0,7.83,4.68,29.17,29.17,0,0,0,11.84,2.48q8,0,12.51-2.61,5.61-3.21,9.29-11a32.7,32.7,0,0,0,3.35-14,29.24,29.24,0,0,0-8.93-21.61A29.7,29.7,0,0,0,927.91,628a18.65,18.65,0,0,1-13.78-5.85,19.15,19.15,0,0,1-5.75-13.88A17.42,17.42,0,0,1,912.93,596q3.15-3.4,10.9-7.76a19.37,19.37,0,0,1,9.57-2.54,23.18,23.18,0,0,1,8.76,2.34q6.15,2.74,6.15,5.62,0,1.47-3.57,3.54t-5.12,2.08a21.85,21.85,0,0,1-4-2.38,13.83,13.83,0,0,0-7.66-2.37,14.4,14.4,0,0,0-4,.6,13.7,13.7,0,0,0-4.41,10.3,13.09,13.09,0,0,0,4,9.77,13.61,13.61,0,0,0,9.87,3.94A34.73,34.73,0,0,1,959,630,35.24,35.24,0,0,1,969.65,655.64Z" transform="translate(-138.04 -307.72)" style="fill:#fff"/><path d="M166,738.86H143v18.91h25.16l-.52,3.22H139.51V716h27.6v3.22H143v16.46h23Z" transform="translate(-138.04 -307.72)" style="fill:#fbb03b"/><path d="M177.72,748.9c1.35,6,5.34,9.52,12.74,9.52,8.24,0,11.39-4.12,11.39-9,0-5.08-2.25-8.23-12.16-10.68-9.52-2.38-13.64-5.47-13.64-12,0-5.92,4.31-11.45,14-11.45,9.91,0,14.09,6,14.67,11.51h-3.6c-1-4.82-4.19-8.3-11.26-8.3-6.5,0-10,3-10,8s3,6.89,11.26,8.95c12.67,3.15,14.54,8.23,14.54,13.63,0,6.63-4.83,12.36-15.25,12.36-11.26,0-15.37-6.57-16.21-12.61Z" transform="translate(-138.04 -307.72)" style="fill:#fbb03b"/><path d="M249.58,749c-2.12,7.14-7.39,12.55-16.92,12.55-12.93,0-19.74-10.3-19.74-23,0-12.16,6.69-23.22,19.81-23.22,9.71,0,15.44,5.4,16.92,12.93h-3.48c-2-5.86-5.85-9.72-13.63-9.72-11.2,0-15.89,10.23-15.89,20s4.63,19.81,16.14,19.81c7.34,0,11.07-3.8,13.32-9.33Z" transform="translate(-138.04 -307.72)" style="fill:#fbb03b"/><path d="M262.84,740v21H259.3V716h16.15c8.88,0,13.57,4.76,13.57,11.84a10.2,10.2,0,0,1-8.43,10.55c4.64,1.09,7.72,4.11,7.72,11.77v1.74c0,3.15-.25,7.39.58,9.13h-3.54c-.83-1.93-.64-5.53-.64-9.39v-1.16c0-7.4-2.19-10.48-10.81-10.48Zm0-3.22h10.87c7.91,0,11.58-3,11.58-8.88,0-5.53-3.6-8.68-10.61-8.68H262.84Z" transform="translate(-138.04 -307.72)" style="fill:#fbb03b"/><path d="M303.5,716v45H300V716Z" transform="translate(-138.04 -307.72)" style="fill:#fbb03b"/><path d="M325.76,719.18H310.64V716h33.84v3.22H329.3V761h-3.54Z" transform="translate(-138.04 -307.72)" style="fill:#fbb03b"/><path d="M387.78,738.15c0,12.29-6.57,23.48-20.46,23.48-12.68,0-20.07-10.22-20.07-23.15,0-12.74,7.14-23.16,20.52-23.16C380.12,715.32,387.78,725,387.78,738.15Zm-36.8.13c0,10.36,5.72,20.14,16.53,20.14,11.64,0,16.53-9.52,16.53-20.2,0-10.49-5.53-19.69-16.4-19.69C356.06,718.53,351,728.12,351,738.28Zm28.56-35.64-10.81,8.82h-4l9.91-8.82Z" transform="translate(-138.04 -307.72)" style="fill:#fbb03b"/><path d="M401.22,740v21h-3.53V716h16.14c8.88,0,13.58,4.76,13.58,11.84A10.2,10.2,0,0,1,419,738.35c4.63,1.09,7.72,4.11,7.72,11.77v1.74c0,3.15-.26,7.39.58,9.13h-3.54c-.84-1.93-.64-5.53-.64-9.39v-1.16c0-7.4-2.19-10.48-10.81-10.48Zm0-3.22H412.1c7.91,0,11.58-3,11.58-8.88,0-5.53-3.61-8.68-10.62-8.68H401.22Z" transform="translate(-138.04 -307.72)" style="fill:#fbb03b"/><path d="M441.88,716v45h-3.47V716Z" transform="translate(-138.04 -307.72)" style="fill:#fbb03b"/><path d="M492.32,738.15c0,12.29-6.56,23.48-20.46,23.48-12.67,0-20.07-10.22-20.07-23.15,0-12.74,7.14-23.16,20.52-23.16C484.67,715.32,492.32,725,492.32,738.15Zm-36.8.13c0,10.36,5.73,20.14,16.54,20.14,11.64,0,16.53-9.52,16.53-20.2,0-10.49-5.53-19.69-16.41-19.69C460.6,718.53,455.52,728.12,455.52,738.28Z" transform="translate(-138.04 -307.72)" style="fill:#fbb03b"/><path d="M519,716h14.92c12.35,0,20.91,8.62,20.91,22.13s-8.36,22.9-21,22.9H519Zm3.47,41.81H533.3c11.91,0,17.76-8.36,17.76-19.49,0-9.9-5.28-19.1-17.76-19.1H522.43Z" transform="translate(-138.04 -307.72)" style="fill:#fbb03b"/><path d="M591.14,738.86h-23v18.91h25.16l-.52,3.22H564.7V716h27.6v3.22H568.17v16.46h23Z" transform="translate(-138.04 -307.72)" style="fill:#fbb03b"/><path d="M623.57,745.42,617.84,761H614.3l16.54-45H635l17.24,45h-3.8l-5.85-15.57Zm17.82-3.21c-5-13.38-7.59-19.82-8.49-22.84h-.07c-1.09,3.41-4,11.39-8,22.84Z" transform="translate(-138.04 -307.72)" style="fill:#fbb03b"/><path d="M660.18,716H675.1c12.35,0,20.91,8.62,20.91,22.13S687.64,761,675,761H660.18Zm3.47,41.81h10.87c11.9,0,17.76-8.36,17.76-19.49,0-9.9-5.28-19.1-17.76-19.1H663.65Z" transform="translate(-138.04 -307.72)" style="fill:#fbb03b"/><path d="M717.24,761l-16.73-45h3.74L713,739.5c2.5,6.82,5.33,14.35,6.3,18.15h.13c1-3.35,4.05-11.26,6.56-17.89l9.07-23.8h3.67l-17.37,45Z" transform="translate(-138.04 -307.72)" style="fill:#fbb03b"/><path d="M783.76,738.15c0,12.29-6.56,23.48-20.46,23.48-12.67,0-20.07-10.22-20.07-23.15,0-12.74,7.14-23.16,20.52-23.16C776.11,715.32,783.76,725,783.76,738.15Zm-36.8.13c0,10.36,5.73,20.14,16.54,20.14,11.64,0,16.53-9.52,16.53-20.2,0-10.49-5.53-19.69-16.4-19.69C752.05,718.53,747,728.12,747,738.28Z" transform="translate(-138.04 -307.72)" style="fill:#fbb03b"/><path d="M827.64,749c-2.12,7.14-7.4,12.55-16.92,12.55-12.93,0-19.75-10.3-19.75-23,0-12.16,6.69-23.22,19.82-23.22,9.71,0,15.43,5.4,16.91,12.93h-3.47c-2.06-5.86-5.85-9.72-13.64-9.72-11.19,0-15.89,10.23-15.89,20s4.63,19.81,16.15,19.81c7.33,0,11.06-3.8,13.32-9.33Z" transform="translate(-138.04 -307.72)" style="fill:#fbb03b"/><path d="M841.54,745.42,835.81,761h-3.54l16.54-45h4.11l17.25,45h-3.8l-5.85-15.57Zm17.82-3.21c-5-13.38-7.59-19.82-8.49-22.84h-.07c-1.09,3.41-4,11.39-8,22.84Z" transform="translate(-138.04 -307.72)" style="fill:#fbb03b"/><path d="M911.41,749c-2.13,7.14-7.4,12.55-16.92,12.55-12.93,0-19.75-10.3-19.75-23,0-12.16,6.69-23.22,19.81-23.22,9.71,0,15.44,5.4,16.92,12.93H908c-2.06-5.86-5.86-9.72-13.64-9.72-11.2,0-15.89,10.23-15.89,20s4.63,19.81,16.14,19.81c7.34,0,11.07-3.8,13.32-9.33Z" transform="translate(-138.04 -307.72)" style="fill:#fbb03b"/><path d="M924.6,716v45h-3.48V716Z" transform="translate(-138.04 -307.72)" style="fill:#fbb03b"/><path d="M942,745.42,936.31,761h-3.54l16.53-45h4.12l17.24,45h-3.8L961,745.42Zm17.82-3.21c-5-13.38-7.59-19.82-8.49-22.84h-.07c-1.09,3.41-4,11.39-8,22.84Z" transform="translate(-138.04 -307.72)" style="fill:#fbb03b"/></svg>